<?xml version="1.0" standalone="no"?>
<!DOCTYPE svg PUBLIC "-//W3C//DTD SVG 1.1//EN" "http://www.w3.org/Graphics/SVG/1.1/DTD/svg11.dtd" >
<svg xmlns="http://www.w3.org/2000/svg">
<metadata>Generated by IcoMoon</metadata>
<defs>
<font id="icomoon" horiz-adv-x="1024">
<font-face units-per-em="1024" ascent="960" descent="-64" />
<missing-glyph horiz-adv-x="1024" />
<glyph unicode="&#x20;" horiz-adv-x="512" d="" />
<glyph unicode="&#xe900;" glyph-name="RP-Webfont_FAQ-Close" d="M476.518 483.533h-183.040v-73.984h439.962v73.984h-256.922z" />
<glyph unicode="&#xe901;" glyph-name="RP-Webfont_FAQ-Open" d="M733.44 483.533h-182.989v182.989h-73.933v-182.989h-183.040v-73.984h183.040v-182.989h73.933v182.989h182.989v73.984z" />
<glyph unicode="&#xe902;" glyph-name="RP-Webfont_Search" d="M892.518 107.418l-218.522 218.522c-0.87 0.87-1.997 1.178-2.918 1.946 52.895 56.925 85.355 133.473 85.355 217.601 0 176.759-143.292 320.051-320.051 320.051s-320.051-143.292-320.051-320.051c0-176.759 143.292-320.051 320.051-320.051 62.75 0 121.282 18.059 170.683 49.262l-1.318-0.777c1.796-3.737 3.95-6.955 6.49-9.823l-0.038 0.044 218.522-218.522c7.908-7.908 18.832-12.799 30.899-12.799 24.134 0 43.698 19.564 43.698 43.698 0 12.067-4.891 22.991-12.799 30.899v0zM206.080 544.307c0 127.84 103.635 231.475 231.475 231.475s231.475-103.635 231.475-231.475c0-127.84-103.635-231.475-231.475-231.475v0c-127.782 0.146-231.33 103.694-231.475 231.461v0.014z" />
<glyph unicode="&#xe903;" glyph-name="RP-Webfont_Download-Solid" d="M512 930.15c-266.284 0-482.15-215.866-482.15-482.15s215.866-482.15 482.15-482.15c266.284 0 482.15 215.866 482.15 482.15v0c0 266.284-215.866 482.15-482.15 482.15v0zM691.456 331.52l-158.157-158.157c-5.275-5.292-12.572-8.566-20.634-8.566s-15.358 3.274-20.633 8.566l-0.001 0.001s-0.307 0.512-0.512 0.768l-0.819 0.512-157.901 158.208c-5.478 5.312-8.878 12.739-8.878 20.961 0 16.118 13.066 29.184 29.184 29.184 8.222 0 15.65-3.4 20.954-8.871l0.007-0.007 108.134-108.39v465.459l58.317-0.512v-467.558l109.722 109.67c5.246 5.087 12.41 8.223 20.306 8.223 16.118 0 29.184-13.066 29.184-29.184 0-7.896-3.136-15.059-8.23-20.313l0.007 0.007z" />
<glyph unicode="&#xe904;" glyph-name="RP-Webfont_Share-Solid" d="M669.594 328.192c-17.924-0.003-34.391-6.236-47.354-16.652l0.147 0.115-192.922 119.091c1.288 5.167 2.051 11.11 2.099 17.223v0.032c-0.028 6.098-0.773 12.009-2.155 17.67l0.107-0.518 191.437 120.576c13.036-11.081 30.041-17.845 48.624-17.92h0.016c42.613 0 77.158 34.545 77.158 77.158s-34.545 77.158-77.158 77.158c-42.613 0-77.158-34.545-77.158-77.158v0c0.018-6.115 0.783-12.043 2.207-17.709l-0.108 0.505-191.437-120.576c-13.039 11.117-30.066 17.903-48.677 17.971h-0.015c-42.613 0-77.158-34.545-77.158-77.158s34.545-77.158 77.158-77.158v0c18.577 0.054 35.568 6.802 48.697 17.958l-0.108-0.090 192.154-118.579c-1.634-5.702-2.618-12.265-2.713-19.043l-0.001-0.054c0-42.613 34.545-77.158 77.158-77.158s77.158 34.545 77.158 77.158c0 42.613-34.545 77.158-77.158 77.158v0z" />
<glyph unicode="&#xe905;" glyph-name="RP-Webfont_Close" d="M513.485 927.232c-0.015 0-0.033 0-0.051 0-265.493 0-480.717-215.224-480.717-480.717s215.224-480.717 480.717-480.717c265.493 0 480.717 215.224 480.717 480.717v0c-0.32 265.346-215.324 480.367-480.632 480.717h-0.034zM513.485 39.834c-0.015 0-0.033 0-0.051 0-224.632 0-406.733 182.1-406.733 406.733s182.1 406.733 406.733 406.733c224.632 0 406.733-182.1 406.733-406.733 0-0.018 0-0.036 0-0.054v0.003c-0.262-224.499-182.183-406.42-406.657-406.682h-0.025zM642.867 628.224l-129.382-129.382-129.434 129.382-52.275-52.275 129.382-129.434-129.382-129.382 52.275-52.275 129.434 129.382 129.382-129.382 52.275 52.275-129.382 129.382 129.382 129.434-52.275 52.275z" />
<glyph unicode="&#xe906;" glyph-name="RP-Webfont_Volume" d="M284.211 557.722h-121.293v-220.518h122.778l194.611-143.667v508.928l-196.096-144.742zM611.277 196.301c-13.387 0.623-24.005 11.629-24.005 25.114s10.618 24.49 23.949 25.112l0.056 0.002c110.28 0 199.68 89.4 199.68 199.68s-89.4 199.68-199.68 199.68v0c-13.856 0-25.088 11.232-25.088 25.088s11.232 25.088 25.088 25.088v0c137.963 0 249.805-111.841 249.805-249.805s-111.841-249.805-249.805-249.805v0zM611.277 345.6c-13.387 0.623-24.005 11.629-24.005 25.114s10.618 24.49 23.949 25.112l0.056 0.002c27.627 0 50.022 22.396 50.022 50.022s-22.396 50.022-50.022 50.022v0c-13.856 0-25.088 11.232-25.088 25.088s11.232 25.088 25.088 25.088v0c54.383-1.268 97.984-45.654 97.984-100.224s-43.601-98.956-97.867-100.222l-0.118-0.002z" />
<glyph unicode="&#xe907;" glyph-name="RP-Webfont_Volume-Slider" d="M694.067 448c0-100.553-81.514-182.067-182.067-182.067s-182.067 81.514-182.067 182.067c0 100.553 81.514 182.067 182.067 182.067s182.067-81.514 182.067-182.067z" />
<glyph unicode="&#xe908;" glyph-name="RP-Webfont_Stations-Arrow" d="M512 421.376l-221.645 220.672c-8.273 7.524-19.316 12.13-31.435 12.13-25.845 0-46.797-20.952-46.797-46.797 0-12.093 4.587-23.115 12.117-31.421l-0.035 0.039 253.696-253.696c0.307-0.358 0.87-0.512 1.229-0.87s0.461-0.819 0.819-1.229c8.461-8.472 20.156-13.713 33.075-13.713s24.614 5.241 33.075 13.712v0l253.696 253.696c9.286 8.578 15.080 20.817 15.080 34.409 0 25.845-20.952 46.797-46.797 46.797-13.605 0-25.854-5.806-34.405-15.075l-0.029-0.032z" />
<glyph unicode="&#xe909;" glyph-name="RP-Webfont_Help-Solid" d="M512 930.15c-266.284 0-482.15-215.866-482.15-482.15s215.866-482.15 482.15-482.15c266.284 0 482.15 215.866 482.15 482.15v0c0 266.284-215.866 482.15-482.15 482.15v0zM556.288 262.554h-81.050v242.432h81.050zM515.789 581.12c-1.445-0.163-3.121-0.256-4.818-0.256-25.11 0-45.466 20.356-45.466 45.466s20.356 45.466 45.466 45.466c1.697 0 3.373-0.093 5.022-0.274l-0.204 0.018c1.468 0.168 3.168 0.264 4.891 0.264 24.583 0 44.614-19.488 45.487-43.858l0.002-0.080c0.001-0.092 0.001-0.2 0.001-0.308 0-25.732-20.86-46.592-46.592-46.592-1.334 0-2.655 0.056-3.96 0.166l0.171-0.012z" />
<glyph unicode="&#xe90a;" glyph-name="RP-Webfont_Help-Outline" d="M512-34.15c-266.284 0-482.15 215.866-482.15 482.15s215.866 482.15 482.15 482.15c266.284 0 482.15-215.866 482.15-482.15v0c-0.32-266.155-215.995-481.83-482.12-482.15h-0.031zM512 855.962c-225.311 0-407.962-182.651-407.962-407.962s182.651-407.962 407.962-407.962c225.311 0 407.962 182.651 407.962 407.962v0c-0.233 225.217-182.744 407.728-407.939 407.962h-0.023zM465.357 626.227c0.529 25.181 21.068 45.392 46.326 45.392 1.445 0 2.875-0.066 4.287-0.196l-0.181 0.013c1.468 0.168 3.168 0.264 4.891 0.264 24.583 0 44.614-19.488 45.487-43.858l0.002-0.080c0.001-0.092 0.001-0.2 0.001-0.308 0-25.732-20.86-46.592-46.592-46.592-1.334 0-2.655 0.056-3.96 0.166l0.171-0.012c-1.23-0.116-2.66-0.182-4.106-0.182-25.259 0-45.797 20.211-46.326 45.342l-0.001 0.049zM475.238 504.986h81.050v-242.432h-81.050z" />
<glyph unicode="&#xe90b;" glyph-name="RP-Webfont_Pause-Outline" d="M512-45.722c-272.411 0.35-493.107 221.262-493.107 493.721 0 272.675 221.047 493.722 493.722 493.722s493.722-221.047 493.722-493.722v0c-0.495-272.691-221.596-493.576-494.322-493.722h-0.014zM512 917.299c-258.973-0.321-468.787-210.333-468.787-469.35 0-259.215 210.135-469.35 469.35-469.35s469.35 210.135 469.35 469.35c0 0.018 0 0.036 0 0.054v-0.004c-0.466 259.215-210.65 469.183-469.902 469.299h-0.011zM326.81 642.918h130.867v-360.038h-130.867v360.038zM569.805 642.918h130.867v-360.038h-130.867v360.038z" />
<glyph unicode="&#xe90c;" glyph-name="RP-Webfont_Play-Outline" d="M351.283 213.146v516.096l441.958-258.048-441.958-258.048zM512-45.722c-272.411 0.35-493.107 221.262-493.107 493.721 0 272.675 221.047 493.722 493.722 493.722s493.722-221.047 493.722-493.722v0c-0.495-272.691-221.596-493.576-494.322-493.722h-0.014zM512 917.299c-258.922-0.35-468.685-210.328-468.685-469.299 0-259.187 210.112-469.299 469.299-469.299s469.299 210.112 469.299 469.298v0c-0.466 259.215-210.65 469.183-469.902 469.299h-0.011z" />
<glyph unicode="&#xe90d;" glyph-name="RP-Webfont_Play-Negative" d="M512 930.15c-266.284 0-482.15-215.866-482.15-482.15s215.866-482.15 482.15-482.15c266.284 0 482.15 215.866 482.15 482.15v0c0 266.284-215.866 482.15-482.15 482.15v0zM351.283 213.35v515.891l441.958-258.048z" />
<glyph unicode="&#xe90e;" glyph-name="RP-Webfont_Listen-Back" d="M614.4 631.859h-361.933l131.942 131.942c5.975 6.343 9.647 14.913 9.647 24.341 0 19.624-15.909 35.533-35.533 35.533-9.428 0-17.998-3.672-24.359-9.663l0.018 0.017-192.614-192.614c-0.307 0-0.41-0.666-0.666-0.973s-0.666-0.307-0.922-0.614c-6.435-6.423-10.417-15.304-10.417-25.114s3.981-18.69 10.416-25.113l0.001-0.001 192.819-192.614c6.432-6.438 15.32-10.421 25.139-10.421 19.625 0 35.534 15.909 35.534 35.534 0 9.806-3.972 18.684-10.395 25.114v0l-133.786 133.427h364.595c113.394-2.444 204.382-94.945 204.382-208.697 0-113.572-90.7-205.96-203.618-208.681l-0.253-0.005v-71.68c153.094 2.136 276.379 126.741 276.379 280.141s-123.285 278.005-276.178 280.139l-0.201 0.002z" />
<glyph unicode="&#xe90f;" glyph-name="RP-Webfont_Website" d="M647.117 590.797c-23.382 23.15-51.848 41.211-83.571 52.356l-1.575 0.482-53.453-53.402c36.423-4.904 68.323-21.349 92.577-45.473l7.673-7.673c29.397-29.445 47.576-70.097 47.576-114.995s-18.179-85.55-47.578-114.997l-187.8-187.851c-29.459-29.387-70.118-47.559-115.021-47.559s-85.562 18.172-115.024 47.562l-7.677 7.677c-29.387 29.459-47.559 70.118-47.559 115.021s18.172 85.562 47.562 115.024l59.952 59.952c-3.065 15.95-4.819 34.294-4.819 53.048 0 12.83 0.821 25.469 2.413 37.866l-0.154-1.468-103.424-103.424c-41.141-41.231-66.582-98.144-66.582-160.998s25.44-119.767 66.586-161.002l7.676-7.676c41.231-41.141 98.144-66.582 160.998-66.582s119.767 25.44 161.002 66.586l187.849 187.798c41.144 41.239 66.586 98.161 66.586 161.024s-25.442 119.784-66.59 161.028l0.004-0.004zM886.733 815.053l-7.68 7.68c-41.231 41.141-98.144 66.582-160.998 66.582s-119.767-25.44-161.002-66.586l-187.849-187.849c-41.141-41.231-66.582-98.144-66.582-160.998s25.44-119.767 66.586-161.002l-0.004 0.004 7.629-7.68c23.403-23.159 51.884-41.235 83.619-52.406l1.578-0.484 53.453 53.453c-36.438 4.87-68.36 21.301-92.629 45.422l-7.672 7.672c-29.387 29.459-47.559 70.118-47.559 115.021s18.172 85.562 47.562 115.024l187.85 187.85c29.459 29.387 70.118 47.559 115.021 47.559s85.562-18.172 115.024-47.562l7.677-7.677c29.387-29.459 47.559-70.118 47.559-115.021s-18.172-85.562-47.562-115.024l-71.677-71.677c3.054-15.963 4.801-34.325 4.801-53.094 0-12.814-0.814-25.437-2.394-37.821l0.153 1.469 115.098 115.149c41.141 41.231 66.582 98.144 66.582 160.998s-25.44 119.767-66.586 161.002l0.004-0.004z" />
<glyph unicode="&#xe910;" glyph-name="RP-Webfont_Download" d="M475.648 792.883v0-566.835l-131.942 131.942c-6.343 5.975-14.913 9.647-24.341 9.647-19.624 0-35.533-15.909-35.533-35.533 0-9.428 3.672-17.998 9.663-24.359l-0.017 0.018 192.614-192.563c0.256-0.307 0.666-0.41 0.973-0.666s0.307-0.666 0.614-0.922c6.423-6.435 15.304-10.417 25.114-10.417s18.69 3.981 25.113 10.416l192.615 192.615c6.438 6.432 10.42 15.32 10.42 25.139 0 19.625-15.909 35.534-35.534 35.534-9.806 0-18.684-3.972-25.114-10.395v0l-133.53-133.786v569.549z" />
<glyph unicode="&#xe911;" glyph-name="RP-Webfont_Share" d="M512 930.15c-266.284 0-482.15-215.866-482.15-482.15s215.866-482.15 482.15-482.15c266.284 0 482.15 215.866 482.15 482.15v0c0 266.284-215.866 482.15-482.15 482.15v0zM431.565 448c-0.049-6.145-0.811-12.088-2.208-17.781l0.109 0.527 192.922-119.091c12.816 10.302 29.283 16.535 47.206 16.538h0.001c42.613 0 77.158-34.545 77.158-77.158s-34.545-77.158-77.158-77.158c-42.613 0-77.158 34.545-77.158 77.158v0c0.095 6.832 1.080 13.395 2.843 19.632l-0.129-0.534-192.154 118.579c-13.027-11.056-30.013-17.801-48.574-17.869h-0.014c-42.613 0-77.158 34.545-77.158 77.158s34.545 77.158 77.158 77.158v0c18.625-0.068 35.652-6.854 48.797-18.059l-0.106 0.088 191.437 120.576c-1.317 5.16-2.081 11.088-2.099 17.192v0.011c0 42.613 34.545 77.158 77.158 77.158s77.158-34.545 77.158-77.158c0-42.613-34.545-77.158-77.158-77.158v0c-18.599 0.075-35.604 6.839-48.748 18.010l0.108-0.090-191.437-120.576c1.275-5.143 2.020-11.054 2.048-17.134v-0.018z" />
<glyph unicode="&#xe912;" glyph-name="RP-Webfont_Pause" d="M326.81 642.918h130.867v-360.038h-130.867v360.038zM569.805 642.918h130.867v-360.038h-130.867v360.038z" />
<glyph unicode="&#xe913;" glyph-name="RP-Webfont_Play" d="M351.283 213.146v516.096l441.958-258.048-441.958-258.048z" />
<glyph unicode="&#xe914;" glyph-name="RP-Webfont_Headphones" d="M894.822 425.933c0 319.078-228.506 382.31-382.822 382.31s-382.822-63.283-382.822-382.31v-236.134c1.28-55.42 46.51-99.857 102.118-99.857s100.838 44.437 102.116 99.738l0.002 0.119v59.392c-0.145 56.354-45.79 101.999-102.13 102.144h-0.014c-11.015-0.081-21.566-1.949-31.416-5.328l0.696 0.208v79.104c0 271.667 196.659 311.245 311.45 311.245s311.45-39.578 311.45-311.245v-79.258c-9.154 3.171-19.705 5.039-30.682 5.12h-0.038c0 0 0 0 0 0-56.464 0-102.254-45.7-102.4-102.13v-59.406c1.28-55.42 46.51-99.857 102.118-99.857s100.838 44.437 102.116 99.738l0.002 0.119v235.52z" />
</font>
</defs>
</svg>
